# xmcd
#
# Track frame offsets:
#	150
#	16568
#	34592
#	60986
#	76877
#	88495
#	93536
#	120604
#	135493
#	154360
#	172120
#	180713
#	199609
#	214334
#
# Disc length: 3073 seconds
#
# Revision: 2
# Processed by: cddbd v1.5.1PL0 Copyright (c) Steve Scherf et al.
# Submitted via: EZCDDA 4.3.2
#
DISCID=b70bff0e
DTITLE=Billy's Band - Немного смерти немного любви
DYEAR=1900
DGENRE=
TTITLE0=Немного смерти немного любви
TTITLE1=Кафе "Последний путь"
TTITLE2=Открытка от...
TTITLE3=На его месте должен был быть я
TTITLE4=Последний день Карлоса
TTITLE5=Дорожная (интро)
TTITLE6=Дорожная
TTITLE7=Бильярд
TTITLE8=Все хорошо
TTITLE9=Никогда не разговаривай с мертвецами
TTITLE10=Другая сторона дороги
TTITLE11=Муз Замбела
TTITLE12=Зимний сон
TTITLE13=Поезд в огне
EXTD=www.billysband.ru
EXTT0=
EXTT1=
EXTT2=
EXTT3=
EXTT4=
EXTT5=
EXTT6=
EXTT7=
EXTT8=
EXTT9=
EXTT10=
EXTT11=
EXTT12=
EXTT13=
PLAYORDER=
